<svg xmlns="http://www.w3.org/2000/svg" width="624" height="373" viewBox="0 0 624 373" fill="none"><path d="M6.44393 302.103V297.463L83.2556 158.79V157.758H18.8163C16.2387 157.758 13.9189 155.439 13.9189 152.861V131.467C13.9189 128.89 16.2387 126.57 18.8163 126.57H126.559C129.136 126.57 131.456 128.89 131.456 131.467V134.818L55.6756 275.296V275.811H121.404C124.239 275.811 126.301 278.131 126.301 280.709V302.103C126.301 304.68 124.239 307 121.404 307H11.3413C8.76375 307 6.44393 304.68 6.44393 302.103ZM162.152 302.103V131.467C162.152 128.89 164.214 126.57 167.049 126.57H271.956C274.791 126.57 276.854 128.89 276.854 131.467V152.603C276.854 155.181 274.791 157.501 271.956 157.501H195.66V199.773H259.326C261.904 199.773 264.223 202.093 264.223 204.67V226.064C264.223 228.9 261.904 230.962 259.326 230.962H195.66V276.069H271.956C274.791 276.069 276.854 278.389 276.854 280.967V302.103C276.854 304.68 274.791 307 271.956 307H167.049C164.214 307 162.152 304.68 162.152 302.103ZM313.685 302.103V131.467C313.685 128.89 315.747 126.57 318.582 126.57H392.301C423.232 126.57 448.492 151.315 448.492 181.988C448.492 205.701 432.769 225.033 410.344 234.055L445.656 299.525C447.461 302.876 445.656 307 441.275 307H414.21C411.89 307 410.601 305.711 410.086 304.68L375.804 236.374H347.193V302.103C347.193 304.68 344.873 307 342.296 307H318.582C315.747 307 313.685 304.68 313.685 302.103ZM347.451 208.794H389.465C403.126 208.794 414.983 196.938 414.983 182.503C414.983 168.842 403.126 157.501 389.465 157.501H347.451V208.794ZM542.577 309.578C501.336 309.578 477.622 275.811 477.622 219.362C477.622 162.914 501.336 129.147 542.577 129.147C583.818 129.147 607.532 162.914 607.532 219.362C607.532 275.811 583.818 309.578 542.577 309.578ZM542.577 279.162C562.425 279.162 573.766 257.768 573.766 219.362C573.766 181.214 562.425 159.563 542.577 159.563C522.73 159.563 511.389 181.214 511.389 219.362C511.389 257.768 522.73 279.162 542.577 279.162Z" fill="url(#paint0_linear_662_17)"></path><path d="M0 242.561H623.255V255.449H0V242.561Z" fill="url(#paint1_linear_662_17)"></path><path d="M180.427 84.2405V22.9343C180.427 22.0082 181.168 21.1748 182.187 21.1748H208.673C219.785 21.1748 228.861 30.0651 228.861 41.0854C228.861 49.6053 223.212 56.5508 215.155 59.7921L227.842 83.3144C228.491 84.5183 227.842 86 226.268 86H216.544C215.711 86 215.248 85.537 215.062 85.1665L202.746 60.6256H192.466V84.2405C192.466 85.1665 191.633 86 190.707 86H182.187C181.168 86 180.427 85.1665 180.427 84.2405ZM192.559 50.7166H207.654C212.562 50.7166 216.822 46.4566 216.822 41.2706C216.822 36.3624 212.562 32.2877 207.654 32.2877H192.559V50.7166ZM242.105 84.2405V22.9343C242.105 22.0082 242.939 21.1748 243.865 21.1748H252.477C253.403 21.1748 254.237 22.0082 254.237 22.9343V84.2405C254.237 85.1665 253.403 86 252.477 86H243.865C242.939 86 242.105 85.1665 242.105 84.2405ZM267.802 79.7027C266.968 78.8692 266.505 78.4062 267.339 76.9245L270.673 71.1828C271.413 69.8863 272.988 69.8863 273.821 70.5346C274.284 70.8124 281.785 76.2762 287.805 76.2762C292.621 76.2762 296.232 73.1276 296.232 69.1454C296.232 64.4225 292.25 61.1812 284.471 58.0325C275.766 54.5135 267.061 48.957 267.061 38.0293C267.061 29.7873 273.173 20.2487 287.898 20.2487C297.343 20.2487 304.567 25.0643 306.419 26.4534C307.345 27.009 307.623 28.5834 306.975 29.5094L303.456 34.7881C302.715 35.8994 301.326 36.6402 300.214 35.8994C299.473 35.4363 292.435 30.8059 287.342 30.8059C282.063 30.8059 279.192 34.325 279.192 37.2885C279.192 41.641 282.619 44.6045 290.12 47.6605C299.103 51.2722 309.475 56.6434 309.475 68.5898C309.475 78.1284 301.233 86.9261 288.175 86.9261C276.507 86.9261 269.654 81.4622 267.802 79.7027ZM316.605 53.68C316.605 35.1585 331.515 20.2487 350.036 20.2487C359.39 20.2487 366.15 23.2121 372.447 28.8612C373.281 29.602 373.281 30.7133 372.54 31.4542L366.891 37.2885C366.243 38.0293 365.317 38.0293 364.576 37.2885C360.686 33.862 355.5 31.8246 350.314 31.8246C338.46 31.8246 329.663 41.7336 329.663 53.4022C329.663 64.9781 338.553 74.7945 350.407 74.7945C355.963 74.7945 360.686 72.6645 364.576 69.5159C365.317 68.8676 366.335 68.9602 366.891 69.5159L372.633 75.4427C373.374 76.091 373.188 77.2949 372.54 77.9431C366.243 84.0552 358.278 86.9261 350.036 86.9261C331.515 86.9261 316.605 72.2015 316.605 53.68ZM379.732 53.68C379.732 35.1585 394.457 20.2487 412.978 20.2487C431.5 20.2487 446.317 35.1585 446.317 53.68C446.317 72.2015 431.5 86.9261 412.978 86.9261C394.457 86.9261 379.732 72.2015 379.732 53.68ZM391.771 53.68C391.771 65.3485 401.31 74.8871 412.978 74.8871C424.647 74.8871 434.278 65.3485 434.278 53.68C434.278 42.0114 424.647 32.2877 412.978 32.2877C401.31 32.2877 391.771 42.0114 391.771 53.68Z" fill="url(#paint2_linear_662_17)"></path><defs><linearGradient id="paint0_linear_662_17" x1="312" y1="68" x2="312" y2="373" gradientUnits="userSpaceOnUse"><stop stop-color="#EF800F"></stop><stop offset="1" stop-color="#FDC42E"></stop></linearGradient><linearGradient id="paint1_linear_662_17" x1="312" y1="68" x2="312" y2="373" gradientUnits="userSpaceOnUse"><stop stop-color="#EF800F"></stop><stop offset="1" stop-color="#FDC42E"></stop></linearGradient><linearGradient id="paint2_linear_662_17" x1="311.5" y1="0" x2="311.5" y2="110" gradientUnits="userSpaceOnUse"><stop stop-color="#EF800F"></stop><stop offset="1" stop-color="#FDC42E"></stop></linearGradient></defs></svg>